<?xml version="1.0" encoding="iso-8859-1"?>
<!-- Generator: Adobe Illustrator 19.0.0, SVG Export Plug-In . SVG Version: 6.00 Build 0)  -->
<svg version="1.1" id="Layer_1" xmlns="http://www.w3.org/2000/svg" xmlns:xlink="http://www.w3.org/1999/xlink" x="0px" y="0px"
	 viewBox="0 0 508.004 508.004" style="enable-background:new 0 0 508.004 508.004;" xml:space="preserve">
<g>
	<g>
		<path d="M378.76,0.002H129.18C57.948,0.002,0,57.966,0,129.21v249.58c0,71.248,57.948,129.212,129.18,129.212h249.576
			c71.268,0,129.244-57.964,129.248-129.212V129.21C508.004,57.966,450.024,0.002,378.76,0.002z M500.004,378.79
			c0,66.836-54.392,121.212-121.244,121.212H129.18C62.36,500.002,8,445.626,8,378.79V129.21C8,62.378,62.36,8.002,129.18,8.002
			h249.576c66.852,0,121.244,54.376,121.248,121.208V378.79z"/>
	</g>
</g>
<g>
	<g>
		<path d="M480.192,253.97c-2.212,0-4,1.792-4,4v112.016c0,57.568-48.632,106.204-106.2,106.204H138.008
			c-57.568,0-106.2-48.636-106.2-106.204V138.002c0-57.56,48.632-106.192,106.2-106.192H369.08c2.212,0,4-1.792,4-4s-1.788-4-4-4
			H138.008c-61.904,0-114.2,52.292-114.2,114.192V369.99c0,61.904,52.296,114.204,114.2,114.204h231.984
			c61.904,0,114.2-52.3,114.2-114.208V257.97C484.192,255.762,482.404,253.97,480.192,253.97z"/>
	</g>
</g>
<g>
	<g>
		<path d="M449.808,58.186c-20.884-20.884-53.936-34.376-84.2-34.376c-2.212,0-4,1.792-4,4s1.788,4,4,4
			c28.256,0,59.084,12.572,78.544,32.032c0.78,0.78,1.804,1.172,2.828,1.172s2.048-0.392,2.828-1.172
			C451.372,62.278,451.372,59.75,449.808,58.186z"/>
	</g>
</g>
<g>
	<g>
		<path d="M480.192,166.67c-2.212,0-4,1.792-4,4v59.524c0,2.208,1.788,4,4,4c2.212,0,4-1.792,4-4V170.67
			C484.192,168.462,482.404,166.67,480.192,166.67z"/>
	</g>
</g>
<g>
	<g>
		<path d="M398.296,179.778c-2.18-0.4-4.248,1.06-4.64,3.236c-17.548,98.18-116.752,179.844-142.36,196.34
			c-8.744,5.64-17.8,7.2-26.9,4.652c-14.568-4.084-27.104-18.304-33.06-30.592c-4.984-10.228-15-42.764-24.688-74.232
			c-14.74-47.892-24.044-77.384-28.928-83.116c-9.112-10.708-28.628,1.216-37.116,7.264l-8.256-10.796
			c10.144-11.512,54.908-60.376,89.028-67.048c6.916-1.344,12.696-0.348,17.616,3.068c15.008,10.408,20.264,41.836,24.9,69.56
			c1.848,11.072,3.6,21.528,5.888,30.624c11.412,45.312,17.628,65.168,29.232,65.168c13.12,0,32.836-31.52,47.064-57.96
			c10.252-19.004,9.944-38.668-0.772-48.928c-8.076-7.728-19.992-8.664-33.448-2.868c9.08-33.248,37.14-52.208,59.724-58.516
			c2.128-0.596,3.368-2.8,2.776-4.928c-0.592-2.128-2.812-3.356-4.924-2.776c-26.624,7.436-60.204,31.012-67.24,72.996
			c-0.256,1.54,0.404,3.084,1.688,3.964c1.288,0.876,2.968,0.932,4.308,0.132c13.268-7.916,24.788-8.732,31.584-2.22
			c8.08,7.74,7.788,23.556-0.736,39.356c-22.884,42.516-36.184,53.752-40.02,53.752c-6.58,0-16.268-38.46-21.472-59.124
			c-2.208-8.78-3.932-19.08-5.752-29.988c-5.14-30.72-10.448-62.48-28.232-74.816c-6.688-4.64-14.664-6.1-23.708-4.344
			c-41.292,8.072-93.512,69.548-95.716,72.16c-1.208,1.436-1.256,3.516-0.116,5.008l12.64,16.52c0.648,0.848,1.608,1.4,2.668,1.536
			c1.08,0.136,2.132-0.156,2.972-0.816c9.332-7.292,25.124-15.756,29.34-10.796c4.164,4.888,17.036,46.692,27.376,80.284
			c10.224,33.22,19.888,64.596,25.136,75.376c6.244,12.88,19.968,29.716,38.092,34.8c3.588,1.004,7.156,1.504,10.7,1.504
			c7.72,0,15.32-2.384,22.696-7.136c26.224-16.896,127.844-100.628,145.892-201.66C401.92,182.246,400.472,180.166,398.296,179.778z
			"/>
	</g>
</g>
<g>
</g>
<g>
</g>
<g>
</g>
<g>
</g>
<g>
</g>
<g>
</g>
<g>
</g>
<g>
</g>
<g>
</g>
<g>
</g>
<g>
</g>
<g>
</g>
<g>
</g>
<g>
</g>
<g>
</g>
</svg>
